<mxfile host="Electron" agent="Mozilla/5.0 (Windows NT 10.0; Win64; x64) AppleWebKit/537.36 (KHTML, like Gecko) draw.io/26.0.9 Chrome/128.0.6613.186 Electron/32.2.5 Safari/537.36" version="26.0.9">
  <diagram id="73rq--4wLsz-ZdURuD6T" name="Page-1">
    <mxGraphModel dx="2590" dy="1755" grid="1" gridSize="10" guides="1" tooltips="1" connect="1" arrows="1" fold="1" page="1" pageScale="1" pageWidth="1550" pageHeight="1000" math="0" shadow="0">
      <root>
        <mxCell id="0" />
        <mxCell id="1" parent="0" />
        <mxCell id="tx8kz9Wl7r3QxCoPUqwi-25" value="" style="rounded=1;whiteSpace=wrap;html=1;fillColor=none;strokeColor=#6c8ebf;strokeWidth=3;" vertex="1" parent="1">
          <mxGeometry x="681" y="90" width="850" height="850" as="geometry" />
        </mxCell>
        <mxCell id="tx8kz9Wl7r3QxCoPUqwi-27" style="edgeStyle=orthogonalEdgeStyle;rounded=0;orthogonalLoop=1;jettySize=auto;html=1;exitX=1;exitY=0.25;exitDx=0;exitDy=0;entryX=0;entryY=0.5;entryDx=0;entryDy=0;" edge="1" parent="1" source="tx8kz9Wl7r3QxCoPUqwi-1" target="tx8kz9Wl7r3QxCoPUqwi-2">
          <mxGeometry relative="1" as="geometry" />
        </mxCell>
        <mxCell id="tx8kz9Wl7r3QxCoPUqwi-1" value="docker exec .... &quot;/home/watchdog task.json&quot;" style="text;html=1;align=center;verticalAlign=middle;whiteSpace=wrap;rounded=0;fontSize=30;" vertex="1" parent="1">
          <mxGeometry x="16" y="400" width="420" height="80" as="geometry" />
        </mxCell>
        <mxCell id="tx8kz9Wl7r3QxCoPUqwi-20" value="&lt;font style=&quot;font-size: 19px;&quot;&gt;watch&lt;/font&gt;" style="edgeStyle=orthogonalEdgeStyle;rounded=0;orthogonalLoop=1;jettySize=auto;html=1;exitX=1;exitY=0.5;exitDx=0;exitDy=0;" edge="1" parent="1" source="tx8kz9Wl7r3QxCoPUqwi-2">
          <mxGeometry relative="1" as="geometry">
            <mxPoint x="1306" y="420" as="targetPoint" />
          </mxGeometry>
        </mxCell>
        <mxCell id="tx8kz9Wl7r3QxCoPUqwi-33" style="edgeStyle=orthogonalEdgeStyle;rounded=0;orthogonalLoop=1;jettySize=auto;html=1;exitX=0;exitY=0.75;exitDx=0;exitDy=0;entryX=1;entryY=0.5;entryDx=0;entryDy=0;" edge="1" parent="1" source="tx8kz9Wl7r3QxCoPUqwi-2" target="tx8kz9Wl7r3QxCoPUqwi-1">
          <mxGeometry relative="1" as="geometry" />
        </mxCell>
        <mxCell id="tx8kz9Wl7r3QxCoPUqwi-2" value="watchdog&lt;div&gt;&lt;div&gt;&lt;font style=&quot;font-size: 20px;&quot;&gt;(uid: 0, gid: 0)&lt;/font&gt;&lt;/div&gt;&lt;/div&gt;" style="rounded=1;whiteSpace=wrap;html=1;fontSize=24;" vertex="1" parent="1">
          <mxGeometry x="988.5" y="380" width="175" height="80" as="geometry" />
        </mxCell>
        <mxCell id="tx8kz9Wl7r3QxCoPUqwi-11" value="" style="group" vertex="1" connectable="0" parent="1">
          <mxGeometry x="1236" y="360" width="280" height="90" as="geometry" />
        </mxCell>
        <mxCell id="tx8kz9Wl7r3QxCoPUqwi-7" value="/sys/fs/cgroup/memory.current" style="text;whiteSpace=wrap;fontSize=20;" vertex="1" parent="tx8kz9Wl7r3QxCoPUqwi-11">
          <mxGeometry width="280" height="40" as="geometry" />
        </mxCell>
        <mxCell id="tx8kz9Wl7r3QxCoPUqwi-10" value="&lt;span style=&quot;font-size: 19px; text-align: left;&quot;&gt;61440 (byte)&lt;/span&gt;" style="rounded=0;whiteSpace=wrap;html=1;" vertex="1" parent="tx8kz9Wl7r3QxCoPUqwi-11">
          <mxGeometry x="70" y="40" width="120" height="50" as="geometry" />
        </mxCell>
        <mxCell id="tx8kz9Wl7r3QxCoPUqwi-12" value="" style="group" vertex="1" connectable="0" parent="1">
          <mxGeometry x="973.5" y="90" width="190" height="230" as="geometry" />
        </mxCell>
        <mxCell id="tx8kz9Wl7r3QxCoPUqwi-5" value="{&lt;div&gt;&amp;nbsp; &quot;command&quot;: &quot;...&quot;,&lt;/div&gt;&lt;div&gt;&amp;nbsp; &quot;stdin&quot;: &quot;....&quot;,&lt;/div&gt;&lt;div&gt;&amp;nbsp; &quot;timeoutMS&quot;: 1000,&lt;/div&gt;&lt;div&gt;&amp;nbsp; &quot;memoryMB&quot;: 512&lt;/div&gt;&lt;div&gt;}&lt;/div&gt;&lt;div&gt;&lt;br style=&quot;text-wrap: nowrap;&quot;&gt;&lt;/div&gt;" style="whiteSpace=wrap;html=1;aspect=fixed;align=left;fontSize=19;" vertex="1" parent="tx8kz9Wl7r3QxCoPUqwi-12">
          <mxGeometry x="10" y="50" width="180" height="180" as="geometry" />
        </mxCell>
        <mxCell id="tx8kz9Wl7r3QxCoPUqwi-6" value="task.json&lt;div&gt;owner: root, rw-------&lt;/div&gt;" style="text;html=1;align=center;verticalAlign=middle;whiteSpace=wrap;rounded=0;fontSize=19;" vertex="1" parent="tx8kz9Wl7r3QxCoPUqwi-12">
          <mxGeometry width="190" height="50" as="geometry" />
        </mxCell>
        <mxCell id="tx8kz9Wl7r3QxCoPUqwi-14" value="" style="group" vertex="1" connectable="0" parent="1">
          <mxGeometry x="906" y="590" width="520" height="310" as="geometry" />
        </mxCell>
        <mxCell id="tx8kz9Wl7r3QxCoPUqwi-23" value="" style="ellipse;whiteSpace=wrap;html=1;fillColor=#ffe6cc;strokeColor=#d79b00;" vertex="1" parent="tx8kz9Wl7r3QxCoPUqwi-14">
          <mxGeometry x="-170" y="-40" width="690" height="350" as="geometry" />
        </mxCell>
        <mxCell id="tx8kz9Wl7r3QxCoPUqwi-13" value="Fork" style="edgeStyle=orthogonalEdgeStyle;rounded=0;orthogonalLoop=1;jettySize=auto;html=1;exitX=0.5;exitY=1;exitDx=0;exitDy=0;entryX=0.5;entryY=0;entryDx=0;entryDy=0;fontSize=19;" edge="1" parent="tx8kz9Wl7r3QxCoPUqwi-14" source="tx8kz9Wl7r3QxCoPUqwi-3" target="tx8kz9Wl7r3QxCoPUqwi-8">
          <mxGeometry relative="1" as="geometry" />
        </mxCell>
        <mxCell id="tx8kz9Wl7r3QxCoPUqwi-3" value="&lt;div&gt;sh -c &quot;&amp;lt;specified command&amp;gt;&quot;&lt;span style=&quot;background-color: transparent; color: light-dark(rgb(0, 0, 0), rgb(255, 255, 255)); font-size: 20px;&quot;&gt;(uid: 1000, gid: 1000)&lt;/span&gt;&lt;/div&gt;" style="rounded=1;whiteSpace=wrap;html=1;fontSize=24;" vertex="1" parent="tx8kz9Wl7r3QxCoPUqwi-14">
          <mxGeometry width="340" height="90" as="geometry" />
        </mxCell>
        <mxCell id="tx8kz9Wl7r3QxCoPUqwi-8" value="&lt;div&gt;&quot;&amp;lt;specified command&amp;gt;&quot;&lt;/div&gt;&lt;div&gt;&lt;span style=&quot;background-color: transparent; color: light-dark(rgb(0, 0, 0), rgb(255, 255, 255)); font-size: 20px;&quot;&gt;(uid: 1000, gid: 1000)&lt;/span&gt;&lt;/div&gt;" style="rounded=1;whiteSpace=wrap;html=1;fontSize=24;" vertex="1" parent="tx8kz9Wl7r3QxCoPUqwi-14">
          <mxGeometry x="30" y="170" width="280" height="90" as="geometry" />
        </mxCell>
        <mxCell id="tx8kz9Wl7r3QxCoPUqwi-18" value="instruct" style="edgeStyle=orthogonalEdgeStyle;rounded=0;orthogonalLoop=1;jettySize=auto;html=1;exitX=0.5;exitY=1;exitDx=0;exitDy=0;entryX=0.5;entryY=0;entryDx=0;entryDy=0;fontSize=17;" edge="1" parent="1" source="tx8kz9Wl7r3QxCoPUqwi-5" target="tx8kz9Wl7r3QxCoPUqwi-2">
          <mxGeometry relative="1" as="geometry">
            <Array as="points">
              <mxPoint x="1073" y="350" />
              <mxPoint x="1076" y="350" />
            </Array>
          </mxGeometry>
        </mxCell>
        <mxCell id="tx8kz9Wl7r3QxCoPUqwi-15" value="Fork &amp;amp; send stdin&lt;div&gt;kill recursive when violating the limit of resource&lt;/div&gt;" style="edgeStyle=orthogonalEdgeStyle;rounded=0;orthogonalLoop=1;jettySize=auto;html=1;exitX=0.5;exitY=1;exitDx=0;exitDy=0;fontSize=19;entryX=0.5;entryY=0;entryDx=0;entryDy=0;" edge="1" parent="1" source="tx8kz9Wl7r3QxCoPUqwi-2" target="tx8kz9Wl7r3QxCoPUqwi-3">
          <mxGeometry relative="1" as="geometry">
            <Array as="points" />
            <mxPoint as="offset" />
          </mxGeometry>
        </mxCell>
        <mxCell id="tx8kz9Wl7r3QxCoPUqwi-26" value="sandbox" style="text;html=1;align=center;verticalAlign=middle;whiteSpace=wrap;rounded=0;fontSize=30;fillColor=default;" vertex="1" parent="1">
          <mxGeometry x="801" y="80" width="150" height="30" as="geometry" />
        </mxCell>
        <mxCell id="tx8kz9Wl7r3QxCoPUqwi-28" value="invoke" style="text;html=1;align=center;verticalAlign=middle;whiteSpace=wrap;rounded=0;fontSize=25;fillColor=default;" vertex="1" parent="1">
          <mxGeometry x="836" y="400" width="80" height="40" as="geometry" />
        </mxCell>
        <mxCell id="tx8kz9Wl7r3QxCoPUqwi-32" value="" style="group;fontSize=15;" vertex="1" connectable="0" parent="1">
          <mxGeometry x="390" y="440" width="320" height="370" as="geometry" />
        </mxCell>
        <mxCell id="tx8kz9Wl7r3QxCoPUqwi-31" value="stdout" style="text;html=1;align=center;verticalAlign=middle;whiteSpace=wrap;rounded=0;fontSize=19;" vertex="1" parent="tx8kz9Wl7r3QxCoPUqwi-32">
          <mxGeometry x="64" width="190" height="50" as="geometry" />
        </mxCell>
        <mxCell id="tx8kz9Wl7r3QxCoPUqwi-34" value="&lt;div style=&quot;forced-color-adjust: none;&quot;&gt;&lt;br&gt;&lt;/div&gt;" style="ellipse;shape=cloud;whiteSpace=wrap;html=1;fontSize=20;align=left;" vertex="1" parent="tx8kz9Wl7r3QxCoPUqwi-32">
          <mxGeometry x="20" y="30" width="260" height="230" as="geometry" />
        </mxCell>
        <mxCell id="tx8kz9Wl7r3QxCoPUqwi-36" value="&lt;span style=&quot;color: rgb(0, 0, 0); font-size: 17px; background-color: rgb(251, 251, 251); float: none; display: inline !important;&quot;&gt;{&lt;/span&gt;&lt;div style=&quot;color: rgb(0, 0, 0); font-size: 17px; background-color: rgb(251, 251, 251);&quot;&gt;&amp;nbsp; &quot;timeMS&quot;: 123,&lt;/div&gt;&lt;div style=&quot;color: rgb(0, 0, 0); font-size: 17px; background-color: rgb(251, 251, 251);&quot;&gt;&amp;nbsp; &quot;memoryKB&quot;: 4124&lt;/div&gt;&lt;div style=&quot;color: rgb(0, 0, 0); font-size: 17px; background-color: rgb(251, 251, 251);&quot;&gt;&amp;nbsp; &quot;stdout&quot;: &quot;....&quot;,&lt;br&gt;&amp;nbsp; &quot;OLE&quot;: false&lt;/div&gt;&lt;div style=&quot;color: rgb(0, 0, 0); font-size: 17px; background-color: rgb(251, 251, 251);&quot;&gt;}&lt;/div&gt;" style="text;html=1;align=left;verticalAlign=middle;whiteSpace=wrap;rounded=0;" vertex="1" parent="tx8kz9Wl7r3QxCoPUqwi-32">
          <mxGeometry x="90" y="80" width="230" height="120" as="geometry" />
        </mxCell>
      </root>
    </mxGraphModel>
  </diagram>
</mxfile>
